<svg width="67" height="67" viewBox="0 0 67 67" fill="none" xmlns="http://www.w3.org/2000/svg">
<path d="M33.0674 2.5C50.4581 2.5 64.5 16.0051 64.5 33.8047C64.4998 47.7979 56.3943 59.6755 44.5 64.1963C44.5038 63.3638 44.5101 62.1679 44.5166 60.7852C44.5267 58.6144 44.5371 55.9977 44.5371 53.6572C44.5371 51.9785 44.2926 50.4864 43.8555 49.1982C46.5573 48.7404 49.3835 47.967 51.7568 46.3105C55.5657 43.6522 57.748 39.133 57.748 31.9199C57.748 29.7045 57.3562 27.9006 56.5723 26.2588C56.0244 25.1112 55.3136 24.1121 54.5459 23.1729C55.0217 21.1471 55.3556 17.6389 53.7451 13.4551L53.3164 12.3418L52.1816 11.9746L51.9062 11.8945C50.5237 11.5397 49.0866 11.8389 48.0332 12.1611C46.8124 12.5346 45.5774 13.1109 44.5205 13.6719C43.4498 14.2401 42.486 14.8341 41.7939 15.2812C41.7393 15.3165 41.6871 15.3522 41.6357 15.3857C39.0394 14.7448 36.3115 14.416 33.6084 14.416C30.9045 14.416 28.1752 14.7444 25.5781 15.3857C25.5267 15.3523 25.4746 15.3165 25.4199 15.2812C24.7281 14.8354 23.7644 14.2438 22.6943 13.6768C21.6378 13.1169 20.4039 12.5408 19.1846 12.167C18.0623 11.8229 16.5064 11.5055 15.0449 11.9717L13.9033 12.335L13.4727 13.4521C11.8581 17.6342 12.1957 21.1542 12.6729 23.1816C11.9022 24.1543 11.2369 25.178 10.7422 26.3604C10.0542 28.0045 9.76564 29.7824 9.76562 31.9199C9.76562 37.0593 10.8354 40.84 12.8154 43.5557C12.2346 43.3201 11.7162 43.1742 11.3154 43.084C11.0762 43.0301 10.8749 42.995 10.7227 42.9727C10.6466 42.9615 10.5824 42.953 10.5312 42.9473C10.5056 42.9444 10.4829 42.9423 10.4639 42.9404C10.4546 42.9395 10.4461 42.9392 10.4385 42.9385C10.4346 42.9381 10.4302 42.9378 10.4268 42.9375C10.4251 42.9374 10.4234 42.9367 10.4219 42.9365H10.4199C10.4189 42.9364 10.4178 42.9364 10.2852 44.5439L10.2842 44.5449L10.417 42.9365L10.3311 42.9297L10.2432 42.9277C9.71775 42.9212 9.17831 42.9549 8.6709 43.0762C8.19374 43.1903 7.47791 43.4448 6.91016 44.0859C6.25006 44.8314 6.10425 45.7347 6.21973 46.4717C6.31906 47.1055 6.59931 47.5903 6.78418 47.8672C7.16103 48.4315 7.65894 48.8831 7.94141 49.124C8.10369 49.2625 8.24992 49.377 8.35645 49.458C8.41012 49.4988 8.45511 49.5327 8.48926 49.5576C8.50639 49.5701 8.52175 49.5807 8.5332 49.5889C8.53877 49.5928 8.54374 49.5967 8.54785 49.5996C8.54986 49.601 8.55207 49.6024 8.55371 49.6035L8.55566 49.6055H8.55664C8.5571 49.6058 8.55693 49.6058 9.53516 48.2148V48.2158L8.55762 49.6064L8.73633 49.7324L8.93457 49.8252C9.28883 49.9916 9.90162 50.6408 10.543 51.7432C10.8209 52.221 11.0448 52.6795 11.1992 53.0195C11.2756 53.1877 11.3332 53.3229 11.3701 53.4121C11.3871 53.4531 11.4004 53.4842 11.4082 53.5039C12.9007 57.9781 17.0655 59.2265 19.9727 59.5117C20.9514 59.6077 21.8874 59.6097 22.7031 59.5703C22.7067 60.3234 22.7085 61.0851 22.7129 61.7979C22.7186 62.7354 22.7227 63.5837 22.7266 64.2207C10.8299 59.6624 2.50016 47.7625 2.5 33.8047C2.5 15.9206 15.7612 2.50019 33.0674 2.5ZM17.3643 47.3701C19.2598 48.326 21.3352 48.8546 23.3535 49.2012C23.2584 49.4773 23.1728 49.763 23.0957 50.0576C22.4476 50.2487 21.6997 50.3762 20.9629 50.3086C19.9333 50.2141 18.6906 49.7377 17.6143 47.792L17.6064 47.7783L17.3672 47.374C17.3663 47.3726 17.3651 47.3715 17.3643 47.3701Z" fill="white" stroke="white" stroke-width="5"/>
</svg>
