<svg width="49" height="49" viewBox="0 0 49 49" fill="none" xmlns="http://www.w3.org/2000/svg">
<path d="M24.4113 0C10.9607 0 0 10.9607 0 24.4113C0 37.862 10.9607 48.8227 24.4113 48.8227C37.862 48.8227 48.8227 37.862 48.8227 24.4113C48.8227 10.9607 37.862 0 24.4113 0ZM2.46554 24.4113C2.46554 21.2379 3.14906 18.2109 4.36963 15.4768L14.8421 44.1601C7.51869 40.596 2.46554 33.1018 2.46554 24.4113ZM24.4113 46.3571C22.2631 46.3571 20.1882 46.0398 18.2108 45.4539L24.8019 26.3154L31.5394 44.7948C31.5883 44.8924 31.6371 45.0145 31.6859 45.0877C29.4156 45.9177 26.9745 46.3571 24.4113 46.3571ZM27.4383 14.1097C28.7565 14.0365 29.9527 13.89 29.9527 13.89C31.1244 13.7436 31.0024 12.0104 29.8062 12.0836C29.8062 12.0836 26.2422 12.3521 23.9475 12.3521C21.7993 12.3521 18.162 12.0836 18.162 12.0836C16.9903 12.0348 16.8438 13.8412 18.04 13.9145C18.04 13.9145 19.1629 14.0609 20.3346 14.1342L23.7522 23.5081L18.9432 37.9108L10.9607 14.1097C12.2789 14.0609 13.4751 13.9145 13.4751 13.9145C14.6468 13.768 14.5247 12.0348 13.3286 12.108C13.3286 12.108 9.76453 12.3765 7.46987 12.3765C7.05487 12.3765 6.56665 12.3765 6.05401 12.3521C10.0086 6.39577 16.7462 2.46554 24.4113 2.46554C30.1236 2.46554 35.3232 4.63815 39.229 8.22662C39.1314 8.22662 39.0337 8.20221 38.9361 8.20221C36.7879 8.20221 35.25 10.0819 35.25 12.108C35.25 13.9145 36.2996 15.4524 37.3982 17.2588C38.2281 18.7235 39.2046 20.6032 39.2046 23.3128C39.2046 25.1925 38.4723 27.3651 37.5446 30.4165L35.3476 37.7399L27.4383 14.1097ZM43.6719 13.89C46.4125 18.9084 47.0863 24.7982 45.5498 30.3059C44.0133 35.8135 40.3879 40.504 35.4452 43.3789L42.1584 23.9963C43.4033 20.8717 43.8183 18.3573 43.8183 16.1359C43.8183 15.3303 43.7695 14.5736 43.6719 13.89Z" fill="#300D19"/>
</svg>
