<svg width="34" height="49" viewBox="0 0 34 49" fill="none" xmlns="http://www.w3.org/2000/svg">
<path fill-rule="evenodd" clip-rule="evenodd" d="M18.5996 31.6721C20.2102 32.964 22.2049 33.6829 24.2693 33.7157C26.3337 33.7484 28.3503 33.093 30.0011 31.8529C31.6518 30.6128 32.8428 28.8585 33.3862 26.8666C33.9296 24.8747 33.7946 22.7586 33.0023 20.852C32.3398 19.2509 31.243 17.8667 29.8358 16.8555C31.0357 15.9945 32.0134 14.8601 32.6877 13.5461C33.3621 12.2322 33.7138 10.7765 33.7137 9.2996C33.7137 6.83319 32.734 4.4678 30.99 2.72379C29.2459 0.979777 26.8805 3.88234e-07 24.4141 3.88234e-07H9.30229C7.33345 -0.000568345 5.41523 0.623741 3.82388 1.78302C2.23252 2.9423 1.05016 4.57672 0.447056 6.45091C-0.156046 8.32511 -0.148763 10.3424 0.467857 12.2121C1.08448 14.0819 2.27861 15.7078 3.8783 16.8555C2.67829 17.7165 1.70062 18.8509 1.02619 20.1649C0.351771 21.4788 2.4469e-07 22.9345 2.4469e-07 24.4115C2.4469e-07 25.8884 0.351771 27.3441 1.02619 28.658C1.70062 29.972 2.67829 31.1064 3.8783 31.9674C2.58364 32.8964 1.54942 34.1425 0.874827 35.5861C0.200235 37.0297 -0.0920931 38.6225 0.0258849 40.2116C0.143863 41.8007 0.668188 43.3328 1.54857 44.661C2.42894 45.9892 3.63584 47.0689 5.05348 47.7965C6.47113 48.5241 8.05195 48.8753 9.64433 48.8163C11.2367 48.7573 12.7872 48.2901 14.1471 47.4595C15.507 46.629 16.6307 45.4629 17.4104 44.0732C18.19 42.6835 18.5995 41.1168 18.5996 39.5233V31.6721ZM9.29996 3.48735C7.75846 3.48735 6.28009 4.09971 5.19008 5.18972C4.10007 6.27973 3.48771 7.7581 3.48771 9.2996C3.48771 10.8411 4.10007 12.3195 5.19008 13.4095C6.28009 14.4995 7.75846 15.1119 9.29996 15.1119H15.1122V3.48735H9.29996ZM15.1122 33.7111H9.29996C8.15041 33.7111 7.02667 34.0519 6.07085 34.6906C5.11503 35.3293 4.37006 36.237 3.93014 37.2991C3.49023 38.3611 3.37513 39.5298 3.59939 40.6572C3.82366 41.7847 4.37722 42.8203 5.19008 43.6332C6.00294 44.4461 7.03858 44.9996 8.16605 45.2239C9.29351 45.4482 10.4622 45.333 11.5242 44.8931C12.5863 44.4532 13.494 43.7082 14.1327 42.7524C14.7713 41.7966 15.1122 40.6729 15.1122 39.5233V33.7111ZM9.29996 18.5992C7.75846 18.5992 6.28009 19.2116 5.19008 20.3016C4.10007 21.3916 3.48771 22.87 3.48771 24.4115C3.48771 25.953 4.10007 27.4313 5.19008 28.5213C6.28009 29.6113 7.75846 30.2237 9.29996 30.2237H15.1122V18.5992H9.29996ZM18.5996 24.4115C18.5996 25.9533 19.212 27.4319 20.3023 28.5222C21.3925 29.6124 22.8712 30.2249 24.413 30.2249C25.9548 30.2249 27.4335 29.6124 28.5237 28.5222C29.6139 27.4319 30.2264 25.9533 30.2264 24.4115C30.2264 22.8696 29.6139 21.391 28.5237 20.3008C27.4335 19.2105 25.9548 18.598 24.413 18.598C22.8712 18.598 21.3925 19.2105 20.3023 20.3008C19.212 21.391 18.5996 22.8696 18.5996 24.4115ZM24.4118 15.1119C25.9533 15.1119 27.4317 14.4995 28.5217 13.4095C29.6117 12.3195 30.2241 10.8411 30.2241 9.2996C30.2241 7.7581 29.6117 6.27973 28.5217 5.18972C27.4317 4.09971 25.9533 3.48735 24.4118 3.48735H18.5996V15.1119H24.4118Z" fill="#300D19"/>
</svg>
