<svg width="47" height="52" viewBox="0 0 47 52" fill="none" xmlns="http://www.w3.org/2000/svg">
<mask id="path-1-inside-1_215_186" fill="white">
<path d="M23.4724 51.1192C22.7427 51.1192 22.0641 50.9292 21.4303 50.6006L14.9669 46.892C13.996 46.3756 14.4825 46.1878 14.7748 46.0939C16.085 45.6714 16.3283 45.5775 17.6897 44.8243C17.8348 44.7304 18.0311 44.7773 18.1762 44.8712L23.1331 47.737C23.3252 47.8309 23.5706 47.8309 23.7157 47.737L43.1061 36.8885C43.2981 36.7946 43.3963 36.6068 43.3963 36.3721V14.722C43.3963 14.4872 43.3002 14.2995 43.1061 14.2056L23.7157 3.40611C23.5215 3.31222 23.2782 3.31222 23.1331 3.40611L3.74279 14.2056C3.5486 14.2995 3.45045 14.5342 3.45045 14.722V36.3721C3.45045 36.5599 3.5486 36.7946 3.74279 36.8885L9.03902 39.8481C11.9069 41.2565 13.7036 39.6134 13.7036 37.9703V16.6019C13.7036 16.3202 13.9469 16.0385 14.2883 16.0385H16.7657C17.0581 16.0385 17.3483 16.2733 17.3483 16.6019V37.9682C17.3483 41.679 15.2592 43.8384 11.6146 43.8384C10.4964 43.8384 9.62156 43.8384 7.14415 42.6648L2.0421 39.8481C1.42774 39.5095 0.914702 39.0134 0.555779 38.4107C0.196856 37.8079 0.00501541 37.1205 0 36.419V14.7689C0 13.3606 0.776724 12.0461 2.0421 11.3419L21.4325 0.491264C22.064 0.16837 22.7631 0 23.4724 0C24.1817 0 24.8809 0.16837 25.5124 0.491264L44.9049 11.3398C46.1681 12.044 46.9449 13.3584 46.9449 14.7668V36.4169C46.9449 37.8252 46.1681 39.1397 44.9049 39.846L25.5145 50.6924C24.87 50.9718 24.1749 51.1156 23.4724 51.1149M29.4494 36.227C20.9459 36.227 19.1962 32.4714 19.1962 29.277C19.1962 28.9953 19.4394 28.7137 19.7787 28.7137H22.3052C22.5975 28.7137 22.8387 28.9014 22.8387 29.1831C23.2292 31.6712 24.3473 32.8918 29.4984 32.8918C33.5805 32.8918 35.3303 31.9998 35.3303 29.8873C35.3303 28.6667 34.8438 27.7748 28.4785 27.1645C23.1801 26.646 19.8769 25.5214 19.8769 21.4351C19.8769 17.6304 23.1801 15.3749 28.7217 15.3749C34.9419 15.3749 38.004 17.4426 38.3924 21.9515C38.3876 22.104 38.3362 22.2515 38.2451 22.374C38.1491 22.4679 38.004 22.5617 37.8568 22.5617H35.3303C35.2075 22.5588 35.0891 22.5159 34.9929 22.4397C34.8966 22.3635 34.8278 22.258 34.7968 22.1392C34.2121 19.5573 32.7056 18.7101 28.7217 18.7101C24.2492 18.7101 23.7157 20.2124 23.7157 21.3412C23.7157 22.7026 24.3473 23.1251 30.3733 23.8762C36.3503 24.6273 39.1691 25.7071 39.1691 29.7443C39.12 33.8797 35.6226 36.227 29.4494 36.227Z"/>
</mask>
<path d="M23.4724 51.1192C22.7427 51.1192 22.0641 50.9292 21.4303 50.6006L14.9669 46.892C13.996 46.3756 14.4825 46.1878 14.7748 46.0939C16.085 45.6714 16.3283 45.5775 17.6897 44.8243C17.8348 44.7304 18.0311 44.7773 18.1762 44.8712L23.1331 47.737C23.3252 47.8309 23.5706 47.8309 23.7157 47.737L43.1061 36.8885C43.2981 36.7946 43.3963 36.6068 43.3963 36.3721V14.722C43.3963 14.4872 43.3002 14.2995 43.1061 14.2056L23.7157 3.40611C23.5215 3.31222 23.2782 3.31222 23.1331 3.40611L3.74279 14.2056C3.5486 14.2995 3.45045 14.5342 3.45045 14.722V36.3721C3.45045 36.5599 3.5486 36.7946 3.74279 36.8885L9.03902 39.8481C11.9069 41.2565 13.7036 39.6134 13.7036 37.9703V16.6019C13.7036 16.3202 13.9469 16.0385 14.2883 16.0385H16.7657C17.0581 16.0385 17.3483 16.2733 17.3483 16.6019V37.9682C17.3483 41.679 15.2592 43.8384 11.6146 43.8384C10.4964 43.8384 9.62156 43.8384 7.14415 42.6648L2.0421 39.8481C1.42774 39.5095 0.914702 39.0134 0.555779 38.4107C0.196856 37.8079 0.00501541 37.1205 0 36.419V14.7689C0 13.3606 0.776724 12.0461 2.0421 11.3419L21.4325 0.491264C22.064 0.16837 22.7631 0 23.4724 0C24.1817 0 24.8809 0.16837 25.5124 0.491264L44.9049 11.3398C46.1681 12.044 46.9449 13.3584 46.9449 14.7668V36.4169C46.9449 37.8252 46.1681 39.1397 44.9049 39.846L25.5145 50.6924C24.87 50.9718 24.1749 51.1156 23.4724 51.1149M29.4494 36.227C20.9459 36.227 19.1962 32.4714 19.1962 29.277C19.1962 28.9953 19.4394 28.7137 19.7787 28.7137H22.3052C22.5975 28.7137 22.8387 28.9014 22.8387 29.1831C23.2292 31.6712 24.3473 32.8918 29.4984 32.8918C33.5805 32.8918 35.3303 31.9998 35.3303 29.8873C35.3303 28.6667 34.8438 27.7748 28.4785 27.1645C23.1801 26.646 19.8769 25.5214 19.8769 21.4351C19.8769 17.6304 23.1801 15.3749 28.7217 15.3749C34.9419 15.3749 38.004 17.4426 38.3924 21.9515C38.3876 22.104 38.3362 22.2515 38.2451 22.374C38.1491 22.4679 38.004 22.5617 37.8568 22.5617H35.3303C35.2075 22.5588 35.0891 22.5159 34.9929 22.4397C34.8966 22.3635 34.8278 22.258 34.7968 22.1392C34.2121 19.5573 32.7056 18.7101 28.7217 18.7101C24.2492 18.7101 23.7157 20.2124 23.7157 21.3412C23.7157 22.7026 24.3473 23.1251 30.3733 23.8762C36.3503 24.6273 39.1691 25.7071 39.1691 29.7443C39.12 33.8797 35.6226 36.227 29.4494 36.227Z" fill="#300D19"/>
<path d="M21.4303 50.6006L14.8885 62.0017L15.1313 62.141L15.3797 62.2698L21.4303 50.6006ZM14.9669 46.892L21.5087 35.4909L21.3256 35.3859L21.1393 35.2868L14.9669 46.892ZM14.7748 46.0939L18.7942 58.6089L18.8016 58.6065L18.8091 58.6041L14.7748 46.0939ZM17.6897 44.8243L24.0533 56.3257L24.4499 56.1063L24.8305 55.8601L17.6897 44.8243ZM18.1762 44.8712L11.0354 55.907L11.312 56.086L11.5972 56.2509L18.1762 44.8712ZM23.1331 47.737L16.5542 59.1167L16.9496 59.3453L17.3599 59.5459L23.1331 47.737ZM23.7157 47.737L17.2978 36.2658L16.9293 36.4719L16.5749 36.7012L23.7157 47.737ZM43.1061 36.8885L37.3328 25.0796L37.0058 25.2395L36.6881 25.4172L43.1061 36.8885ZM43.1061 14.2056L36.7103 25.6892L37.0422 25.874L37.3842 26.0394L43.1061 14.2056ZM23.7157 3.40611L30.1115 -8.0775L29.7796 -8.26235L29.4375 -8.42773L23.7157 3.40611ZM23.1331 3.40611L29.5289 14.8897L29.9088 14.6781L30.2739 14.4419L23.1331 3.40611ZM3.74279 14.2056L9.46464 26.0394L9.80667 25.874L10.1386 25.6892L3.74279 14.2056ZM3.74279 36.8885L10.155 25.414L9.81513 25.2241L9.46464 25.0546L3.74279 36.8885ZM9.03902 39.8481L2.62683 51.3226L2.93162 51.4929L3.24502 51.6468L9.03902 39.8481ZM7.14415 42.6648L0.791263 54.1722L1.14822 54.3693L1.51671 54.5438L7.14415 42.6648ZM2.0421 39.8481L8.39499 28.3407L8.38668 28.3361L2.0421 39.8481ZM0 36.419H-13.1446V36.466L-13.1442 36.513L0 36.419ZM2.0421 11.3419L8.43389 22.8278L8.44745 22.8202L8.461 22.8126L2.0421 11.3419ZM21.4325 0.491264L15.4486 -11.2123L15.2289 -11.0999L15.0136 -10.9794L21.4325 0.491264ZM23.4724 0V13.1446V0ZM25.5124 0.491264L31.9298 -10.9803L31.7152 -11.1003L31.4963 -11.2123L25.5124 0.491264ZM44.9049 11.3398L38.4875 22.8113L38.4962 22.8162L38.5049 22.821L44.9049 11.3398ZM44.9049 39.846L38.4901 28.373L38.4879 28.3742L44.9049 39.846ZM25.5145 50.6924L30.7426 62.7525L31.3519 62.4884L31.9315 62.1642L25.5145 50.6924ZM22.8387 29.1831H9.69411V30.2083L9.85307 31.2212L22.8387 29.1831ZM28.4785 27.1645L27.1982 40.2465L27.2111 40.2478L27.224 40.249L28.4785 27.1645ZM38.3924 21.9515L51.5306 22.3604L51.5545 21.5907L51.4884 20.8235L38.3924 21.9515ZM38.2451 22.374L47.4347 31.7724L48.1745 31.0491L48.792 30.2189L38.2451 22.374ZM35.3303 22.5617L35.0123 35.7025L35.1713 35.7063H35.3303V22.5617ZM34.7968 22.1392L21.9768 25.0423L22.0242 25.2513L22.0783 25.4587L34.7968 22.1392ZM30.3733 23.8762L32.0123 10.8342L31.9992 10.8326L30.3733 23.8762ZM39.1691 29.7443L52.3127 29.9003L52.3136 29.8223V29.7443H39.1691ZM23.4724 51.1192V37.9746C25.1203 37.9746 26.5023 38.424 27.481 38.9315L21.4303 50.6006L15.3797 62.2698C17.6259 63.4345 20.365 64.2637 23.4724 64.2637V51.1192ZM21.4303 50.6006L27.9721 39.1996L21.5087 35.4909L14.9669 46.892L8.42509 58.2931L14.8885 62.0017L21.4303 50.6006ZM14.9669 46.892L21.1393 35.2868C21.3326 35.3896 22.6729 36.0831 24.055 37.5506C25.4168 38.9966 28.918 43.6481 26.9918 50.0966C25.4435 55.2801 21.4191 57.4102 20.8204 57.7354C20.1879 58.0791 19.6611 58.2936 19.3727 58.4044C19.0724 58.5198 18.8413 58.5937 18.7942 58.6089L14.7748 46.0939L10.7554 33.579C10.6556 33.611 9.52514 33.9536 8.26952 34.6358C7.52777 35.0388 3.38756 37.2657 1.80243 42.5725C-0.160529 49.1442 3.38278 53.9453 4.91735 55.5747C6.47217 57.2256 8.11573 58.1362 8.79444 58.4972L14.9669 46.892ZM14.7748 46.0939L18.8091 58.6041C20.9083 57.9272 21.9333 57.4987 24.0533 56.3257L17.6897 44.8243L11.326 33.3228C11.0091 33.4982 10.8715 33.5716 10.8083 33.6042C10.7706 33.6237 10.8536 33.5797 11.0027 33.5153C11.156 33.4491 11.2595 33.413 11.2457 33.4179C11.2303 33.4233 11.1877 33.4379 11.0993 33.4671C11.0096 33.4968 10.8979 33.533 10.7406 33.5838L14.7748 46.0939ZM17.6897 44.8243L24.8305 55.8601C21.6364 57.9268 18.3519 58.1032 16.1425 57.7994C13.9992 57.5047 12.283 56.7143 11.0354 55.907L18.1762 44.8712L25.317 33.8354C23.4663 32.6379 17.1742 29.5015 10.5489 33.7885L17.6897 44.8243ZM18.1762 44.8712L11.5972 56.2509L16.5542 59.1167L23.1331 47.737L29.7121 36.3573L24.7551 33.4916L18.1762 44.8712ZM23.1331 47.737L17.3599 59.5459C19.3577 60.5225 21.4567 60.952 23.442 60.952C25.3099 60.952 28.0917 60.5618 30.8565 58.7728L23.7157 47.737L16.5749 36.7012C19.1946 35.0061 21.7811 34.6629 23.442 34.6629C25.2204 34.6629 27.1007 35.0453 28.9064 35.9281L23.1331 47.737ZM23.7157 47.737L30.1336 59.2082L49.524 48.3597L43.1061 36.8885L36.6881 25.4172L17.2978 36.2658L23.7157 47.737ZM43.1061 36.8885L48.8793 48.6973C54.5413 45.9293 56.5408 40.4637 56.5408 36.3721H43.3963H30.2517C30.2517 34.6814 30.6067 32.5225 31.813 30.3351C33.0688 28.0582 34.9986 26.2208 37.3328 25.0796L43.1061 36.8885ZM43.3963 36.3721H56.5408V14.722H43.3963H30.2517V36.3721H43.3963ZM43.3963 14.722H56.5408C56.5408 10.7123 54.5998 5.16253 48.8279 2.37172L43.1061 14.2056L37.3842 26.0394C35.025 24.8987 33.0673 23.0442 31.7991 20.7321C30.588 18.524 30.2517 16.3655 30.2517 14.722H43.3963ZM43.1061 14.2056L49.5018 2.72195L30.1115 -8.0775L23.7157 3.40611L17.3199 14.8897L36.7103 25.6892L43.1061 14.2056ZM23.7157 3.40611L29.4375 -8.42773C26.2934 -9.94797 20.9793 -10.8565 15.9923 -7.62967L23.1331 3.40611L30.2739 14.4419C27.6656 16.1296 25.0849 16.4803 23.406 16.4803C21.6141 16.4803 19.7572 16.0926 17.9938 15.24L23.7157 3.40611ZM23.1331 3.40611L16.7374 -8.0775L-2.65301 2.72195L3.74279 14.2056L10.1386 25.6892L29.5289 14.8897L23.1331 3.40611ZM3.74279 14.2056L-1.97907 2.37172C-8.11836 5.34017 -9.69411 11.2695 -9.69411 14.722H3.45045H16.595C16.595 16.7542 16.1041 18.7266 15.1864 20.4918C14.2556 22.2822 12.4899 24.5767 9.46464 26.0394L3.74279 14.2056ZM3.45045 14.722H-9.69411V36.3721H3.45045H16.595V14.722H3.45045ZM3.45045 36.3721H-9.69411C-9.69411 39.8245 -8.11837 45.7539 -1.97907 48.7223L3.74279 36.8885L9.46464 25.0546C12.4899 26.5174 14.2556 28.8119 15.1864 30.6023C16.1041 32.3674 16.595 34.3398 16.595 36.3721H3.45045ZM3.74279 36.8885L-2.66941 48.3629L2.62683 51.3226L9.03902 39.8481L15.4512 28.3737L10.155 25.414L3.74279 36.8885ZM9.03902 39.8481L3.24502 51.6468C7.51751 53.7449 13.3057 54.5549 18.7363 51.5957C23.8565 48.8056 26.8482 43.5041 26.8482 37.9703H13.7036H0.55907C0.55907 34.0797 2.6524 30.4212 6.1573 28.5113C9.97251 26.4324 13.4284 27.3597 14.833 28.0494L9.03902 39.8481ZM13.7036 37.9703H26.8482V16.6019H13.7036H0.55907V37.9703H13.7036ZM13.7036 16.6019H26.8482C26.8482 23.3256 21.4581 29.1831 14.2883 29.1831V16.0385V2.89399C6.43572 2.89399 0.55907 9.31488 0.55907 16.6019H13.7036ZM14.2883 16.0385V29.1831H16.7657V16.0385V2.89399H14.2883V16.0385ZM16.7657 16.0385V29.1831C10.93 29.1831 4.2037 24.6149 4.2037 16.6019H17.3483H30.4928C30.4928 7.93169 23.1861 2.89399 16.7657 2.89399V16.0385ZM17.3483 16.6019H4.2037V37.9682H17.3483H30.4928V16.6019H17.3483ZM17.3483 37.9682H4.2037C4.2037 37.4082 4.3962 35.2131 6.43299 33.1224C8.51731 30.9829 10.833 30.6939 11.6146 30.6939V43.8384V56.983C16.0408 56.983 21.2233 55.6142 25.2633 51.4673C29.2558 47.3692 30.4928 42.2389 30.4928 37.9682H17.3483ZM11.6146 43.8384V30.6939C11.5399 30.6939 11.4986 30.6939 11.4624 30.6937C11.4294 30.6936 11.4202 30.6934 11.425 30.6935C11.436 30.6936 11.5244 30.6952 11.658 30.7041C11.9691 30.7246 12.3353 30.7712 12.708 30.853C13.0526 30.9287 13.2567 31.0026 13.2755 31.0095C13.2817 31.0118 13.1316 30.9563 12.7716 30.7858L7.14415 42.6648L1.51671 54.5438C3.23357 55.3572 5.06577 56.0904 7.0702 56.5305C9.24923 57.0089 10.9957 56.983 11.6146 56.983V43.8384ZM7.14415 42.6648L13.497 31.1574L8.39499 28.3407L2.0421 39.8481L-4.31079 51.3555L0.791263 54.1722L7.14415 42.6648ZM2.0421 39.8481L8.38668 28.3361C9.81796 29.125 11.0132 30.2809 11.8494 31.6851L0.555779 38.4107L-10.7379 45.1362C-9.1838 47.7458 -6.96247 49.8941 -4.30248 51.3601L2.0421 39.8481ZM0.555779 38.4107L11.8494 31.6851C12.6856 33.0892 13.1325 34.6908 13.1442 36.325L0 36.419L-13.1442 36.513C-13.1225 39.5501 -12.2919 42.5267 -10.7379 45.1362L0.555779 38.4107ZM0 36.419H13.1446V14.7689H0H-13.1446V36.419H0ZM0 14.7689H13.1446C13.1446 18.2297 11.2498 21.2608 8.43389 22.8278L2.0421 11.3419L-4.34968 -0.143914C-9.69632 2.83145 -13.1446 8.49142 -13.1446 14.7689H0ZM2.0421 11.3419L8.461 22.8126L27.8514 11.962L21.4325 0.491264L15.0136 -10.9794L-4.3768 -0.128781L2.0421 11.3419ZM21.4325 0.491264L27.4164 12.1948C26.1954 12.819 24.8437 13.1446 23.4724 13.1446V0V-13.1446C20.6826 -13.1446 17.9326 -12.4823 15.4486 -11.2123L21.4325 0.491264ZM23.4724 0V13.1446C22.1011 13.1446 20.7494 12.819 19.5285 12.1948L25.5124 0.491264L31.4963 -11.2123C29.0123 -12.4823 26.2623 -13.1446 23.4724 -13.1446V0ZM25.5124 0.491264L19.095 11.9628L38.4875 22.8113L44.9049 11.3398L51.3223 -0.131754L31.9298 -10.9803L25.5124 0.491264ZM44.9049 11.3398L38.5049 22.821C35.6919 21.253 33.8003 18.2247 33.8003 14.7668H46.9449H60.0894C60.0894 8.49217 56.6444 2.83494 51.3049 -0.141459L44.9049 11.3398ZM46.9449 14.7668H33.8003V36.4169H46.9449H60.0894V14.7668H46.9449ZM46.9449 36.4169H33.8003C33.8003 32.9561 35.6933 29.9368 38.4901 28.373L44.9049 39.846L51.3197 51.319C56.643 48.3426 60.0894 42.6944 60.0894 36.4169H46.9449ZM44.9049 39.846L38.4879 28.3742L19.0976 39.2206L25.5145 50.6924L31.9315 62.1642L51.3219 51.3178L44.9049 39.846ZM25.5145 50.6924L20.2865 38.6323C21.2962 38.1945 22.3852 37.9692 23.4857 37.9703L23.4724 51.1149L23.4591 64.2594C25.9646 64.262 28.4438 63.749 30.7426 62.7525L25.5145 50.6924ZM29.4494 36.227V23.0824C26.8421 23.0824 28.0106 22.4699 29.8833 24.1402C30.8448 24.9978 31.5315 26.0733 31.9281 27.1435C32.2946 28.1325 32.3407 28.9105 32.3407 29.277H19.1962H6.05162C6.05162 33.2526 7.20775 39.1422 12.3847 43.7595C17.2581 48.1062 23.5532 49.3715 29.4494 49.3715V36.227ZM19.1962 29.277H32.3407C32.3407 35.9683 26.9822 41.8582 19.7787 41.8582V28.7137V15.5691C11.8967 15.5691 6.05162 22.0223 6.05162 29.277H19.1962ZM19.7787 28.7137V41.8582H22.3052V28.7137V15.5691H19.7787V28.7137ZM22.3052 28.7137V41.8582C19.7054 41.8582 16.7228 41.0254 14.1774 38.8656C11.4767 36.5742 9.69411 33.09 9.69411 29.1831H22.8387H35.9832C35.9832 19.6999 27.7494 15.5691 22.3052 15.5691V28.7137ZM22.8387 29.1831L9.85307 31.2212C10.2919 34.0172 11.6948 39.4911 17.347 43.0732C21.7065 45.836 26.5899 46.0363 29.4984 46.0363V32.8918V19.7472C28.6592 19.7472 28.4848 19.6918 28.7124 19.7335C28.9398 19.7753 30.0484 19.9988 31.4196 20.8677C32.974 21.8528 34.2047 23.246 34.9942 24.7721C35.6692 26.0768 35.8155 27.0892 35.8243 27.1451L22.8387 29.1831ZM29.4984 32.8918V46.0363C31.9345 46.0363 36.0705 45.8683 39.9535 43.8727C42.1902 42.7232 44.5606 40.8579 46.2722 37.9978C47.9696 35.1615 48.4748 32.2562 48.4748 29.8873H35.3303H22.1857C22.1857 28.5746 22.4722 26.5731 23.714 24.4981C24.9699 22.3994 26.6478 21.1532 27.9368 20.4907C29.1054 19.8901 29.9684 19.7536 30.0802 19.7359C30.2339 19.7116 30.0881 19.7472 29.4984 19.7472V32.8918ZM35.3303 29.8873H48.4748C48.4748 28.8543 48.4245 25.8964 46.6827 22.7172C44.8638 19.3971 42.1715 17.526 40.0997 16.5054C36.7673 14.8639 32.8007 14.374 29.733 14.0799L28.4785 27.1645L27.224 40.249C28.5756 40.3786 29.3147 40.4965 29.6517 40.5641C30.0885 40.6516 29.4881 40.5838 28.483 40.0886C27.3285 39.5199 25.1556 38.1388 23.6269 35.3483C22.1753 32.6987 22.1857 30.31 22.1857 29.8873H35.3303ZM28.4785 27.1645L29.7587 14.0824C28.7048 13.9793 28.1242 13.879 27.8409 13.814C27.5257 13.7416 27.9745 13.8001 28.7492 14.2462C29.6409 14.7596 30.9252 15.7707 31.894 17.4695C32.8502 19.1462 33.0214 20.6558 33.0214 21.4351H19.8769H6.73232C6.73232 24.2575 7.31643 27.4401 9.05757 30.4931C10.8113 33.5682 13.2525 35.6591 15.6323 37.0292C19.7918 39.4239 24.4848 39.981 27.1982 40.2465L28.4785 27.1645ZM19.8769 21.4351H33.0214C33.0214 22.4339 32.7904 23.7263 32.0897 25.0462C31.392 26.3606 30.4591 27.2684 29.646 27.825C28.2033 28.8126 27.4743 28.5195 28.7217 28.5195V15.3749V2.23036C24.4275 2.23036 19.2761 3.06501 14.7963 6.13153C9.74335 9.59043 6.73232 15.1405 6.73232 21.4351H19.8769ZM28.7217 15.3749V28.5195C29.5919 28.5195 29.9325 28.5959 29.9009 28.5888C29.8563 28.5787 29.2199 28.4307 28.3608 27.8475C27.4245 27.2118 26.5673 26.2888 25.9785 25.1782C25.4273 24.1383 25.3176 23.3265 25.2963 23.0795L38.3924 21.9515L51.4884 20.8235C51.0289 15.4882 48.6483 9.84554 43.1271 6.09723C38.3519 2.85537 32.9082 2.23036 28.7217 2.23036V15.3749ZM38.3924 21.9515L25.2542 21.5426C25.333 19.0098 26.186 16.5621 27.6983 14.529L38.2451 22.374L48.792 30.2189C50.4865 27.9409 51.4422 25.1982 51.5306 22.3604L38.3924 21.9515ZM38.2451 22.374L29.0555 12.9755C29.7483 12.2981 30.6939 11.5334 31.9328 10.8793C33.1342 10.2449 35.1827 9.41719 37.8568 9.41719V22.5617V35.7063C43.0782 35.7063 46.3779 32.8057 47.4347 31.7724L38.2451 22.374ZM37.8568 22.5617V9.41719H35.3303V22.5617V35.7063H37.8568V22.5617ZM35.3303 22.5617L35.6483 9.42103C38.3785 9.4871 41.013 10.4399 43.1539 12.1355L34.9929 22.4397L26.8319 32.744C29.1652 34.592 32.0366 35.6305 35.0123 35.7025L35.3303 22.5617ZM34.9929 22.4397L43.1539 12.1355C45.2946 13.8309 46.8256 16.1771 47.5153 18.8197L34.7968 22.1392L22.0783 25.4587C22.83 28.3389 24.4987 30.8961 26.8319 32.744L34.9929 22.4397ZM34.7968 22.1392L47.6168 19.2362C46.8082 15.6654 44.6998 10.9451 39.4916 8.00747C35.3998 5.69962 31.073 5.56558 28.7217 5.56558V18.7101V31.8547C29.3149 31.8547 29.3609 31.8911 29.0849 31.8446C28.799 31.7964 27.8111 31.6018 26.5764 30.9054C25.2075 30.1334 23.9965 29.0043 23.1183 27.644C22.3223 26.4112 22.0536 25.3812 21.9768 25.0423L34.7968 22.1392ZM28.7217 18.7101V5.56558C25.5659 5.56558 20.8066 5.98875 16.6807 9.06726C11.4528 12.9681 10.5711 18.4151 10.5711 21.3412H23.7157H36.8603C36.8603 22.0467 36.7862 23.5544 36.0724 25.338C35.2965 27.2768 34.0044 28.942 32.4022 30.1374C29.6612 32.1826 27.405 31.8547 28.7217 31.8547V18.7101ZM23.7157 21.3412H10.5711C10.5711 22.4657 10.6317 25.8005 12.7955 29.226C14.9935 32.7054 18.0703 34.2986 19.8428 35.0177C22.6804 36.1691 26.2334 36.6065 28.7475 36.9198L30.3733 23.8762L31.9992 10.8326C30.5651 10.6538 29.694 10.5235 29.1652 10.4263C28.5118 10.3063 28.9211 10.3305 29.7267 10.6574C30.588 11.0069 33.1304 12.1921 35.0215 15.186C36.8787 18.1259 36.8603 20.8974 36.8603 21.3412H23.7157ZM30.3733 23.8762L28.7343 36.9182C30.0368 37.0819 30.7613 37.2164 31.1493 37.3112C31.5759 37.4154 31.0959 37.3555 30.2647 36.8583C29.2654 36.2605 27.9399 35.1342 26.9991 33.3437C26.1121 31.6556 26.0245 30.2426 26.0245 29.7443H39.1691H52.3136C52.3136 27.2274 51.8737 24.1655 50.2714 21.1159C48.6153 17.964 46.2116 15.7639 43.7604 14.2976C39.64 11.8328 34.8066 11.1854 32.0123 10.8342L30.3733 23.8762ZM39.1691 29.7443L26.0254 29.5883C26.0355 28.7436 26.2397 27.5427 26.922 26.2744C27.6069 25.0013 28.5216 24.1292 29.3039 23.6065C30.6477 22.7088 31.1645 23.0824 29.4494 23.0824V36.227V49.3715C33.9075 49.3715 39.2596 48.5715 43.9077 45.4663C49.2185 41.9183 52.2375 36.2377 52.3127 29.9003L39.1691 29.7443Z" fill="#300D19" mask="url(#path-1-inside-1_215_186)"/>
</svg>
