<svg width="49" height="49" viewBox="0 0 49 49" fill="none" xmlns="http://www.w3.org/2000/svg">
<path d="M22.8124 0.0128751C22.7074 0.0223941 22.3732 0.0558325 22.0725 0.0795081C15.1382 0.704592 8.64283 4.44582 4.52879 10.1958C2.23827 13.393 0.772863 17.0195 0.219458 20.8611C0.0239231 22.202 0 22.5982 0 24.4161C0 26.2342 0.023923 26.6303 0.219702 27.9711C1.54621 37.1377 8.07038 44.8395 16.9185 47.6931C18.5031 48.2037 20.1733 48.552 22.0727 48.7619C22.8126 48.8429 26.01 48.8429 26.7499 48.7619C30.0286 48.3992 32.8061 47.5881 35.5456 46.1898C35.9654 45.9752 36.0467 45.9179 35.9894 45.8703C35.9513 45.8415 34.1615 43.4412 32.014 40.5401L28.1101 35.2673L23.2181 28.0284C20.5265 24.0487 18.3122 20.7942 18.2929 20.7942C18.2738 20.7895 18.2548 24.0058 18.2453 27.933C18.2309 34.8091 18.2262 35.0859 18.1403 35.248C18.0163 35.4818 17.9208 35.5773 17.7202 35.6825C17.5676 35.7586 17.4338 35.773 16.7132 35.773H15.8876L15.6679 35.6346C15.5319 35.5494 15.4214 35.4291 15.3481 35.2863L15.248 35.0715L15.2578 25.5042L15.272 15.9319L15.4199 15.7457C15.4963 15.6456 15.6586 15.5167 15.7731 15.4547C15.9687 15.3593 16.0451 15.3498 16.8707 15.3498C17.8444 15.3498 18.0065 15.3878 18.2597 15.6646C18.3312 15.741 20.9798 19.7302 24.1489 24.5354C27.3572 29.3991 30.5675 34.2616 33.7797 39.1227L37.6454 44.9779L37.8412 44.8491C39.5734 43.7229 41.4063 42.1195 42.857 40.4493C45.9448 36.9038 47.9351 32.5807 48.6032 27.9711C48.7987 26.6303 48.8227 26.2342 48.8227 24.4161C48.8227 22.5979 48.7987 22.202 48.6032 20.8611C47.2764 11.6945 40.7523 3.99281 31.9041 1.1393C30.3435 0.633321 28.6828 0.285022 26.8215 0.0751148C26.3633 0.0272755 23.2086 -0.0249572 22.8126 0.013119M32.8061 14.7772C33.0351 14.8916 33.2214 15.1111 33.2883 15.34C33.3263 15.4642 33.3359 18.1174 33.3263 24.0963L33.3119 32.6762L31.7992 30.3569L30.2815 28.0379V21.8012C30.2815 17.7691 30.3006 15.5023 30.3291 15.3925C30.4055 15.1255 30.5725 14.9156 30.8017 14.7913C30.9973 14.6912 31.069 14.6815 31.8182 14.6815C32.5247 14.6815 32.6487 14.6912 32.8061 14.7772Z" fill="#300D19"/>
</svg>
