<svg width="66" height="49" viewBox="0 0 66 49" fill="none" xmlns="http://www.w3.org/2000/svg">
<path d="M56.0526 28.0622C54.0083 28.0622 51.9844 28.53 50.1537 29.4352C49.5536 28.2249 48.9332 27.1672 48.8315 26.3739C48.7094 25.4483 48.5772 24.8991 48.7196 23.8007C48.862 22.7023 49.5027 21.1462 49.4926 21.0343C49.4824 20.9224 49.3502 20.3631 48.0382 20.3529C46.7262 20.3427 45.5972 20.6072 45.465 20.953C45.2311 21.5835 45.048 22.2344 44.926 22.8955C44.6921 24.0855 42.302 28.3368 40.9493 30.554C40.5018 29.6895 40.1255 28.9267 40.0441 28.3164C39.9221 27.3909 39.7899 26.8417 39.9323 25.7433C40.0746 24.6449 40.7154 23.0888 40.7052 22.9769C40.695 22.865 40.5628 22.3056 39.2508 22.2955C37.9388 22.2853 36.8099 22.5497 36.6777 22.8955C36.5455 23.2413 36.4031 24.055 36.1386 24.8381C35.8742 25.6212 32.6908 32.6999 31.8568 34.5408C31.4297 35.4765 31.0635 36.2291 30.7991 36.7377C30.7584 36.819 30.7279 36.8699 30.7076 36.9106C30.7381 36.8597 30.7584 36.8089 30.7584 36.8292C30.5347 37.2665 30.4024 37.5106 30.4024 37.5106V37.5208C30.2295 37.8462 30.0363 38.1412 29.9448 38.1412C29.8837 38.1412 29.7515 37.2869 29.9753 36.1173C30.4533 33.656 31.5822 29.8318 31.5721 29.6996C31.5619 29.6284 31.7856 28.9674 30.8296 28.6114C29.9041 28.2758 29.5685 28.8351 29.4871 28.8351C29.4057 28.8351 29.3447 29.0385 29.3447 29.0385C29.3447 29.0385 30.3719 24.7262 27.3716 24.7262C25.5002 24.7262 22.8966 26.7807 21.6151 28.6419C20.8116 29.0792 19.0724 30.0251 17.2417 31.032C16.54 31.4185 15.8179 31.8151 15.1364 32.1914C15.0856 32.1406 15.0449 32.0897 14.994 32.0389C11.353 28.1537 4.63025 25.4077 4.91502 20.1902C5.01673 18.2883 5.67781 13.2945 17.8418 7.23287C27.8089 2.26964 35.7725 3.63249 37.1455 6.66332C39.1186 10.9858 32.8841 19.0307 22.5304 20.1902C18.5843 20.6275 16.5095 19.1019 15.9908 18.5324C15.4517 17.9323 15.3704 17.9018 15.1669 18.0137C14.8313 18.1967 15.0449 18.7256 15.1669 19.0409C15.4721 19.8444 16.7434 21.2682 18.9097 21.9802C20.8116 22.6006 25.4392 22.9464 31.033 20.7801C37.3184 18.3595 42.2105 11.6164 40.7764 5.97172C39.3118 0.235525 29.8024 -1.64603 20.8116 1.54753C15.4517 3.44942 9.6545 6.43957 5.48457 10.3349C0.531512 14.9727 -0.261791 19.0104 0.0636668 20.6987C1.22311 26.6891 9.4816 30.5946 12.787 33.4831C12.6243 33.5746 12.4717 33.656 12.3294 33.7373C10.6716 34.5612 4.37598 37.8564 2.79955 41.3347C1.0197 45.2809 3.09449 48.1083 4.45735 48.4948C8.70864 49.6746 13.0616 47.549 15.4009 44.0605C17.7401 40.572 17.4553 36.0155 16.3772 33.9408C16.3671 33.9102 16.3467 33.8899 16.3366 33.8594C16.7637 33.6051 17.2011 33.3509 17.6384 33.0966C18.4825 32.5982 19.3064 32.1406 20.0285 31.7439C19.6216 32.8423 19.3267 34.1645 19.1741 36.0766C18.9911 38.3141 19.9166 41.2127 21.1167 42.3518C21.6456 42.8502 22.2863 42.8603 22.683 42.8603C24.0865 42.8603 24.7171 41.7009 25.4189 40.3177C26.2834 38.6294 27.0462 36.6665 27.0462 36.6665C27.0462 36.6665 26.0901 41.9755 28.704 41.9755C29.66 41.9755 30.616 40.7449 31.0432 40.1143V40.1245C31.0432 40.1245 31.0635 40.0838 31.1144 40.0024C31.2161 39.8498 31.2669 39.7583 31.2669 39.7583V39.7278C31.6534 39.0667 32.4976 37.5513 33.7689 35.0493C35.4165 31.8151 36.993 27.7774 36.993 27.7774C37.1455 28.6622 37.3591 29.5369 37.6235 30.4014C37.9083 31.3676 38.5084 32.4253 38.9864 33.4526C38.5999 33.9814 38.366 34.2866 38.366 34.2866C38.366 34.2967 38.366 34.2967 38.3762 34.3069C38.071 34.7137 37.7252 35.1511 37.3693 35.5782C36.0674 37.1241 34.5215 38.8938 34.3181 39.4023C34.074 40.0024 34.135 40.4499 34.6029 40.7957C34.9487 41.0601 35.5589 41.1008 36.1997 41.05C37.3693 40.9686 38.1931 40.6838 38.5897 40.5008C39.322 40.2363 40.0136 39.8804 40.6442 39.4227C41.9155 38.487 42.6885 37.1445 42.6173 35.3748C42.5766 34.3984 42.2613 33.4221 41.8748 32.5067C41.9867 32.344 42.1087 32.1711 42.2206 31.9982C44.2344 29.0589 45.7905 25.8348 45.7905 25.8348C45.9431 26.7197 46.1566 27.5943 46.4211 28.4588C46.6652 29.2826 47.1432 30.1878 47.5805 31.0727C45.6888 32.6084 44.5192 34.3883 44.1124 35.5579C43.3597 37.7242 43.9496 38.7006 45.0582 38.9243C45.5566 39.026 46.2685 38.7921 46.7974 38.5684C47.5805 38.3039 48.323 37.9276 48.9942 37.4394C50.2655 36.5037 51.4962 35.1917 51.4148 33.4119C51.3843 32.6084 51.1605 31.8049 50.8656 31.032C52.4624 30.3607 54.5372 29.9946 57.1815 30.2997C62.8465 30.9608 63.9551 34.5001 63.7415 35.9749C63.5279 37.4496 62.338 38.2734 61.9413 38.5175C61.5447 38.7616 61.4226 38.8531 61.4532 39.0362C61.504 39.3006 61.6871 39.2905 62.0227 39.2294C62.4905 39.1481 64.9925 38.0293 65.1044 35.2934C65.2671 31.8354 61.9413 28.0317 56.0526 28.0622ZM12.4107 42.779C10.5393 44.8233 7.91534 45.5962 6.78641 44.9453C5.57611 44.2435 6.05412 41.233 8.36284 39.0565C9.76638 37.7344 11.5767 36.5139 12.7769 35.7613C13.0515 35.5986 13.4481 35.3545 13.9363 35.0595C14.0177 35.0087 14.0584 34.9883 14.0584 34.9883C14.1499 34.9273 14.2516 34.8764 14.3533 34.8154C15.1975 37.9073 14.3838 40.633 12.4107 42.779ZM26.08 33.4831C25.429 35.0799 24.056 39.1481 23.222 38.9345C22.5101 38.7514 22.0728 35.6494 23.0796 32.5982C23.5882 31.0625 24.6662 29.2318 25.307 28.5198C26.3342 27.3706 27.4631 27.0044 27.7276 27.4621C28.0836 28.0622 26.4868 32.4864 26.08 33.4831ZM37.3693 38.8735C37.0947 39.0159 36.8404 39.1074 36.7184 39.0362C36.6268 38.9853 36.8302 38.7921 36.8302 38.7921C36.8302 38.7921 38.2439 37.2767 38.8033 36.5851C39.1288 36.1783 39.5051 35.7003 39.9119 35.1714C39.9119 35.2222 39.9221 35.2731 39.9221 35.3341C39.9119 37.1546 38.1626 38.3853 37.3693 38.8735ZM46.0753 36.8902C45.8719 36.7478 45.9024 36.2698 46.5838 34.7849C46.8482 34.2052 47.4585 33.2288 48.5162 32.2931C48.6382 32.6491 48.6993 33.0152 48.7094 33.3915C48.6993 35.6799 47.0618 36.5342 46.0753 36.8902Z" fill="#300D19"/>
</svg>
