<svg width="57" height="45" viewBox="0 0 57 45" fill="none" xmlns="http://www.w3.org/2000/svg">
<path d="M28.4955 18.0062L50.7892 23.6052C54.669 22.0733 57 20.12 57 18.0062V9.00032C57 4.03593 44.236 0 28.4955 0C12.7568 0 0 4.03604 0 9.00032V18.0062C0 22.9723 12.756 27.003 28.4945 27.003L28.4955 18.0062ZM0 27.003V36.0033C0 40.9713 12.7568 45 28.4955 45L28.4945 36.0024C12.756 36.0023 0 31.971 0 27.003ZM50.7874 32.6074L28.4945 27.003V36.0024L50.7874 41.6078C54.6689 40.0685 57 38.1225 57 36.0015V27.003C57.0018 29.124 54.6689 31.07 50.7874 32.6074Z" fill="#300D19"/>
</svg>
