<svg width="49" height="49" viewBox="0 0 49 49" fill="none" xmlns="http://www.w3.org/2000/svg">
<mask id="mask0_55_210" style="mask-type:luminance" maskUnits="userSpaceOnUse" x="0" y="0" width="49" height="49">
<path d="M0 0H48.8227V48.8227H0V0Z" fill="white"/>
</mask>
<g mask="url(#mask0_55_210)">
<path fill-rule="evenodd" clip-rule="evenodd" d="M0 0H48.8227V48.8227H0V0ZM37.3229 40.9297C35.0587 40.9297 33.7792 39.7498 32.7966 38.1427L29.0678 40.3092C30.4145 42.97 33.1669 45.0002 37.4287 45.0002C41.7861 45.0002 45.0308 42.7381 45.0308 38.6065C45.0308 34.776 42.8297 33.0733 38.932 31.3991L37.7847 30.9088C35.8155 30.0544 34.9631 29.4991 34.9631 28.1218C34.9631 27.0091 35.8175 26.1567 37.1601 26.1567C38.4763 26.1567 39.3246 26.7121 40.1119 28.1218L43.6841 25.8292C42.1726 23.1704 40.0773 22.1553 37.1601 22.1553C33.0631 22.1553 30.4409 24.7755 30.4409 28.2175C30.4409 31.9504 32.6379 33.7181 35.9497 35.1279L37.0971 35.6202C39.1903 36.5356 40.4374 37.093 40.4374 38.6655C40.4374 39.9796 39.2229 40.9297 37.3229 40.9297ZM19.5433 40.8991C17.9667 40.8991 17.3097 39.821 16.5895 38.5394L12.8546 40.8015C13.9368 43.0921 16.0647 44.9921 19.7366 44.9921C23.8031 44.9921 26.588 42.8297 26.588 38.0796V22.4157H22.0007V38.0186C22.0007 40.3112 21.0487 40.8991 19.5413 40.8991" fill="#300D19"/>
</g>
</svg>
