<svg width="51" height="49" viewBox="0 0 51 49" fill="none" xmlns="http://www.w3.org/2000/svg">
<mask id="mask0_215_149" style="mask-type:luminance" maskUnits="userSpaceOnUse" x="0" y="0" width="51" height="49">
<path d="M0 0H50.7004V48.8227H0V0Z" fill="white"/>
</mask>
<g mask="url(#mask0_215_149)">
<path d="M49.4942 7.13847e-06H1.20414C1.04583 6.90387e-06 0.889077 0.0300665 0.742846 0.0884659C0.596616 0.146865 0.463779 0.232458 0.351937 0.340347C0.240095 0.448235 0.151443 0.576302 0.0910542 0.717219C0.0306651 0.858135 -0.000275876 1.00914 1.85651e-06 1.16158V47.6631C-0.000276432 47.8157 0.0307342 47.9669 0.0912552 48.108C0.151776 48.249 0.240617 48.3772 0.352683 48.4851C0.464749 48.593 0.597835 48.6785 0.74431 48.7368C0.890784 48.7951 1.04777 48.825 1.20625 48.8247H49.4963C49.6548 48.825 49.8118 48.7951 49.9583 48.7368C50.1047 48.6785 50.2378 48.593 50.3499 48.4851C50.4619 48.3772 50.5508 48.249 50.6113 48.108C50.6718 47.9669 50.7028 47.8157 50.7026 47.6631V1.15955C50.7026 1.00693 50.6713 0.855815 50.6105 0.714867C50.5497 0.57392 50.4606 0.445913 50.3484 0.338186C50.2361 0.23046 50.1029 0.145134 49.9563 0.0871012C49.8097 0.0290688 49.6527 -0.000528355 49.4942 7.13847e-06ZM30.1794 26.0916H24.144V44.1723H19.3148V26.0916H13.2793V22.0862H30.1794V26.0916ZM31.5315 43.1389V38.3075C31.5315 38.3075 34.2735 40.297 37.5627 40.297C40.8519 40.297 40.7251 38.2261 40.7251 37.9413C40.7251 34.9367 31.4047 34.9367 31.4047 28.2765C31.4047 19.2199 44.9861 22.7941 44.9861 22.7941L44.8171 27.0986C44.8171 27.0986 42.5398 25.636 39.9667 25.636C37.3937 25.636 36.4663 26.8159 36.4663 28.073C36.4663 31.3218 45.8712 30.9983 45.8712 37.5365C45.8712 47.6062 31.5315 43.1409 31.5315 43.1409" fill="#300D19"/>
</g>
</svg>
