<svg width="35" height="49" viewBox="0 0 35 49" fill="none" xmlns="http://www.w3.org/2000/svg">
<path d="M4.40278 23.1139C8.56708 24.576 12.9596 25.2805 17.3722 25.1941C21.785 25.2799 26.1775 24.5748 30.3417 23.1121C33.5919 21.8445 34.7445 20.4356 34.7445 19.6248V13.426C33.6078 14.1864 32.3888 14.8158 31.1106 15.3022C26.7051 16.8795 22.051 17.6486 17.3722 17.5725C12.694 17.6459 8.04055 16.8781 3.63382 15.3057C2.3549 14.8196 1.13572 14.189 0 13.426V19.6161C0 20.4426 1.15606 21.8445 4.40278 23.1139ZM4.40278 34.8052C5.87372 35.3663 7.3906 35.7986 8.93633 36.0973C11.716 36.6339 14.5413 36.8984 17.3722 36.8872C20.2031 36.899 23.0284 36.635 25.8081 36.099C27.3538 35.8003 28.8707 35.368 30.3417 34.807C33.5919 33.5393 34.7445 32.1304 34.7445 31.3196V25.4086C33.8052 25.9738 32.8179 26.4552 31.7942 26.8471C27.166 28.4854 22.281 29.2785 17.3722 29.1888C12.4629 29.2757 7.57795 28.4796 2.9503 26.8384C1.92757 26.444 0.940521 25.9628 0 25.3998V31.3161C0 32.1287 1.15606 33.5323 4.40278 34.8052ZM17.3722 48.8226C26.9624 48.8226 34.7445 45.7817 34.7445 42.0328V37.0859C33.89 37.601 32.9948 38.0454 32.0679 38.4146L31.7942 38.5245C27.1668 40.1675 22.2819 40.9654 17.3722 40.8802C12.4623 40.9692 7.57668 40.1712 2.9503 38.5245L2.67654 38.4146C1.74965 38.0454 0.854487 37.601 0 37.0859V42.0328C0 45.7817 7.78202 48.8226 17.3722 48.8226Z" fill="#300D19"/>
<path d="M17.3722 13.5797C26.9666 13.5797 34.7445 10.5398 34.7445 6.78987C34.7445 3.03993 26.9666 0 17.3722 0C7.77781 0 0 3.03993 0 6.78987C0 10.5398 7.77781 13.5797 17.3722 13.5797Z" fill="#300D19"/>
</svg>
