<svg width="43" height="49" viewBox="0 0 43 49" fill="none" xmlns="http://www.w3.org/2000/svg">
<path d="M0 0.585872C0 0.912984 0.827544 10.4725 1.84794 21.8359C2.8488 33.1799 3.7154 42.8053 3.73737 43.2178L3.80328 43.955L12.6036 46.3888L21.3794 48.8227L23.1371 48.3442L31.8958 45.9324C37.8913 44.2822 38.9141 43.9331 38.9995 43.5645C39.1094 43.0421 42.8028 1.17419 42.8028 0.478462V0H0V0.585872ZM34.918 9.82068C34.8301 10.3431 34.2662 16.5143 33.6583 23.574C33.0285 30.6142 32.5061 36.4388 32.4622 36.4803C32.3743 36.5901 21.7066 39.5439 21.4038 39.5439C21.1841 39.5439 15.362 37.9572 11.3854 36.8294L10.2772 36.5023L10.0184 33.6339C9.90457 32.2134 9.77437 30.7942 9.62783 29.3766L9.49601 28.0291H12.213C15.2766 28.0291 15.1912 27.9851 15.2107 29.877C15.2107 30.353 15.2766 31.0927 15.3401 31.5272L15.4719 32.3084L18.4501 33.0896L21.4038 33.8732L24.3356 33.092C25.9444 32.6575 27.2894 32.2864 27.2894 32.2864C27.3138 32.2669 27.4432 30.9829 27.575 29.4401C27.7044 27.8777 27.8558 26.3569 27.9217 26.0078L28.0291 25.422H9.3886L9.27874 24.9215C9.21283 24.6603 9.08345 23.4007 8.99557 22.0971L8.84422 19.7732H28.4221L28.5515 18.2938C28.6394 17.4907 28.7687 16.2531 28.8347 15.5573C28.9201 14.6663 28.8981 14.3197 28.7248 14.4271C28.5954 14.493 23.967 14.493 18.4037 14.4051L8.30229 14.2757L8.17047 12.7329C8.08503 11.8859 7.97518 10.6678 7.90927 10.0379L7.78233 8.91014H35.0254L34.918 9.82068Z" fill="#300D19"/>
</svg>
