<svg width="53" height="49" viewBox="0 0 53 49" fill="none" xmlns="http://www.w3.org/2000/svg">
<path d="M26.2891 19.6139C28.808 19.6139 30.8622 21.7461 30.8622 24.4113C30.8622 26.9497 28.808 29.1073 26.2891 29.1073C23.7703 29.1073 21.716 26.9497 21.716 24.4113C21.716 21.7461 23.7703 19.6139 26.2891 19.6139ZM14.9665 44.7181C16.5071 45.6826 19.8819 44.2104 23.7703 40.4029C22.4986 38.9053 21.2514 37.2807 20.0776 35.58C18.107 35.3829 16.1479 35.0778 14.2084 34.6662C12.9611 40.0983 13.4258 43.8297 14.9665 44.7181ZM16.7028 30.148L15.9936 28.8534C15.7246 29.5895 15.4556 30.3257 15.2844 31.0364C15.9447 31.1887 16.6783 31.3156 17.4364 31.4425L16.7028 30.148ZM32.6963 28.2188L34.6772 24.4113L32.6963 20.6038C31.9627 19.2585 31.1801 18.0655 30.4709 16.8724C29.1504 16.7963 27.7564 16.7963 26.2891 16.7963C24.8218 16.7963 23.4279 16.7963 22.1073 16.8724C21.3981 18.0655 20.6156 19.2585 19.8819 20.6038L17.9011 24.4113L19.8819 28.2188C20.6156 29.5642 21.3981 30.7572 22.1073 31.9502C23.4279 32.0264 24.8218 32.0264 26.2891 32.0264C27.7564 32.0264 29.1504 32.0264 30.4709 31.9502C31.1801 30.7572 31.9627 29.5642 32.6963 28.2188ZM26.2891 11.1612C25.8245 11.7196 25.3354 12.3034 24.8463 12.9888H27.732C27.2429 12.3034 26.7538 11.7196 26.2891 11.1612ZM26.2891 37.6615C26.7538 37.103 27.2429 36.5192 27.732 35.8339H24.8463C25.3354 36.5192 25.8245 37.103 26.2891 37.6615ZM37.5873 4.10458C36.0711 3.14001 32.6963 4.61225 28.808 8.41977C30.0796 9.91739 31.3269 11.5419 32.5007 13.2426C34.506 13.4457 36.4869 13.7503 38.3699 14.1564C39.6171 8.72437 39.1525 4.993 37.5873 4.10458ZM35.8755 18.6747L36.5847 19.9692C36.8537 19.2331 37.1227 18.497 37.2939 17.7863C36.6336 17.634 35.8999 17.507 35.1418 17.3801L35.8755 18.6747ZM39.4215 0.779355C43.0163 2.91156 43.4076 8.5213 41.8914 15.0702C48.103 16.974 52.5782 20.1215 52.5782 24.4113C52.5782 28.7011 48.103 31.8487 41.8914 33.7524C43.4076 40.3014 43.0163 45.9111 39.4215 48.0433C35.851 50.1755 30.9845 47.7387 26.2891 43.0935C21.5938 47.7387 16.7272 50.1755 13.1323 48.0433C9.5619 45.9111 9.17062 40.3014 10.6868 33.7524C4.47526 31.8487 0 28.7011 0 24.4113C0 20.1215 4.47526 16.974 10.6868 15.0702C9.17062 8.5213 9.5619 2.91156 13.1323 0.779355C16.7272 -1.35285 21.5938 1.08396 26.2891 5.72912C30.9845 1.08396 35.851 -1.35285 39.4215 0.779355ZM38.7123 24.4113C39.5437 26.3151 40.2774 28.2188 40.8888 30.148C46.0243 28.5488 48.91 26.2643 48.91 24.4113C48.91 22.5583 46.0243 20.2738 40.8888 18.6747C40.2774 20.6038 39.5437 22.5076 38.7123 24.4113ZM13.866 24.4113C13.0345 22.5076 12.3009 20.6038 11.6895 18.6747C6.55394 20.2738 3.66825 22.5583 3.66825 24.4113C3.66825 26.2643 6.55394 28.5488 11.6895 30.148C12.3009 28.2188 13.0345 26.3151 13.866 24.4113ZM35.8755 30.148L35.1418 31.4425C35.8999 31.3156 36.6336 31.1887 37.2939 31.0364C37.1227 30.3257 36.8537 29.5895 36.5847 28.8534L35.8755 30.148ZM28.808 40.4029C32.6963 44.2104 36.0711 45.6826 37.5873 44.7181C39.1525 43.8297 39.6171 40.0983 38.3699 34.6662C36.4869 35.0724 34.506 35.377 32.5007 35.58C31.3269 37.2807 30.0796 38.9053 28.808 40.4029ZM16.7028 18.6747L17.4364 17.3801C16.6783 17.507 15.9447 17.634 15.2844 17.7863C15.4556 18.497 15.7246 19.2331 15.9936 19.9692L16.7028 18.6747ZM23.7703 8.41977C19.8819 4.61225 16.5071 3.14001 14.9665 4.10458C13.4258 4.993 12.9611 8.72437 14.2084 14.1564C16.1479 13.7448 18.107 13.4398 20.0776 13.2426C21.2514 11.5419 22.4986 9.91739 23.7703 8.41977Z" fill="#300D19"/>
</svg>
