<svg width="49" height="49" viewBox="0 0 49 49" fill="none" xmlns="http://www.w3.org/2000/svg">
<path d="M47.6094 18.1346C46.7452 14.8268 45.1683 12.227 41.8605 12.227H37.4543V17.4266C37.4543 21.4423 33.9879 24.8281 30.2871 24.8281H18.5477C15.3205 24.8281 12.7989 27.5866 12.7989 30.8138V41.921C12.7989 44.9895 15.5573 46.8813 18.5477 47.9042C22.1728 49.0076 25.7149 49.2444 30.2041 47.9042C33.1188 47.0376 35.9554 45.3849 35.9554 41.9185V37.5074H24.3772V36.0915H41.8605C45.1683 36.0915 46.5085 33.7285 47.6094 30.184C48.7909 26.3246 48.7909 22.78 47.6094 18.1346ZM30.9121 40.1853C32.096 40.1853 33.1188 41.2106 33.1188 42.3921C33.1188 43.5736 32.0936 44.5964 30.9145 44.5964C29.733 44.6746 28.7077 43.5712 28.7077 42.3921C28.6296 41.2106 29.6524 40.1853 30.9145 40.1853M18.0009 23.3317H29.6573C32.8845 23.3317 35.4062 20.6538 35.4062 17.3461V6.3976C35.4062 3.32665 32.7283 0.963637 29.6549 0.411941C25.7979 -0.137314 21.543 -0.137314 18.0009 0.411941C13.0381 1.27854 12.2496 3.08986 12.2496 6.3976V10.8087H23.906V12.2246H7.99471C4.68697 12.2246 1.69415 14.3533 0.827544 18.1321C-0.275848 22.5433 -0.275848 25.2993 0.827544 29.8691C1.69415 33.3355 3.58602 35.7766 7.04999 35.7766H10.8313V30.4989C10.7507 26.6395 14.139 23.3317 17.9985 23.3317M17.2905 7.8159C16.7094 7.80407 16.1553 7.5681 15.7441 7.15731C15.3328 6.74652 15.0962 6.19269 15.0838 5.61155C15.0838 4.43005 16.109 3.40477 17.2881 3.40477C18.4672 3.40477 19.4949 4.43005 19.4949 5.61155C19.4949 6.79306 18.472 7.8159 17.2905 7.8159Z" fill="#300D19"/>
</svg>
