<svg width="61" height="37" viewBox="0 0 61 37" fill="none" xmlns="http://www.w3.org/2000/svg">
<path d="M30.0447 0C22.0228 0 17.0354 3.99595 15.0224 12.0179C18.0268 8.02194 21.5421 6.5197 25.538 7.51118C27.8214 8.08203 29.4739 9.73449 31.2765 11.5672C34.2209 14.5717 37.5559 18.0268 45.0671 18.0268C53.089 18.0268 58.0764 14.0309 60.0894 6.00894C57.085 10.0049 53.5697 11.5071 49.5738 10.5156C47.2904 9.9448 45.668 8.29234 43.8352 6.45961C40.8909 3.45514 37.5559 0 30.0447 0ZM15.0224 18.0268C7.00042 18.0268 2.013 22.0228 0 30.0447C3.00447 26.0488 6.5197 24.5465 10.5156 25.538C12.799 26.1089 14.4215 27.7613 16.2542 29.594C19.1986 32.5985 22.5335 36.0537 30.0447 36.0537C38.0666 36.0537 43.0541 32.0577 45.0671 24.0358C42.0626 28.0317 38.5474 29.534 34.5514 28.5425C32.268 27.9716 30.6456 26.3192 28.8129 24.4864C25.8685 21.482 22.5335 18.0268 15.0224 18.0268Z" fill="#300D19"/>
</svg>
