<svg width="57" height="57" viewBox="0 0 57 57" fill="none" xmlns="http://www.w3.org/2000/svg">
<path d="M43.2455 56.6456C42.8082 56.8587 42.3313 56.9784 41.8452 56.9973C41.3591 57.0162 40.8744 56.9337 40.4219 56.7552C39.9622 56.5767 39.5454 56.3033 39.1986 55.9528L16.7319 35.354L6.9455 42.821C6.50442 43.1565 5.95962 43.3266 5.406 43.3018C4.85238 43.2769 4.32501 43.0587 3.91575 42.685L0.776377 39.8131C0.531698 39.5889 0.336328 39.3162 0.202674 39.0123C0.069019 38.7085 0 38.3802 0 38.0483C0 37.7164 0.069019 37.3881 0.202674 37.0843C0.336328 36.7805 0.531698 36.5078 0.776377 36.2835L9.26056 28.5009L0.776377 20.7182C0.531698 20.494 0.336328 20.2213 0.202674 19.9174C0.069019 19.6136 0 19.2853 0 18.9534C0 18.6215 0.069019 18.2932 0.202674 17.9894C0.336328 17.6856 0.531698 17.4129 0.776377 17.1886L3.91575 14.3167C4.32501 13.9431 4.85238 13.7248 5.406 13.7C5.95962 13.6752 6.50442 13.8453 6.9455 14.1808L16.7319 21.6478L39.1986 1.04895C39.7161 0.525105 40.3845 0.176248 41.1102 0.0512361C41.8359 -0.0737757 42.5825 0.0313188 43.2455 0.351801L54.9831 6.02985C56.2152 6.62615 57 7.88015 57 9.25691V30.6932H42.7588V15.4962L25.7116 28.5009L42.7588 41.5056V30.6932H57V47.7449C57 49.1216 56.2152 50.3756 54.9831 50.9719L43.2455 56.6456Z" fill="#300D19"/>
</svg>
