<svg width="65" height="34" viewBox="0 0 65 34" fill="none" xmlns="http://www.w3.org/2000/svg">
<path d="M18.7737 12.0988H16.2415L14.8619 19.1894H17.111C18.5943 19.1894 19.7028 18.9076 20.4364 18.344C21.1573 17.7897 21.6493 16.8479 21.9003 15.5407C22.1493 14.2856 22.0349 13.396 21.577 12.8739C21.1071 12.3598 20.1727 12.1001 18.7737 12.0988ZM32.1296 0C14.38 0 0 7.57254 0 16.9002C0 26.2278 14.38 33.8003 32.1296 33.8003C49.8791 33.8003 64.2591 26.2278 64.2591 16.9002C64.2591 7.57254 49.8791 0 32.1296 0ZM23.3963 19.9545C22.7011 20.6225 21.8645 21.1256 20.9485 21.4264C20.0488 21.7095 18.9002 21.8662 17.5086 21.8662H14.3378L13.4703 26.3643H9.77743L13.0727 9.43203H20.1633C22.2986 9.4307 23.8569 9.98828 24.8382 11.1048C25.8121 12.2233 26.1153 13.7936 25.7157 15.8017C25.5667 16.5971 25.2922 17.3637 24.9024 18.0729C24.5026 18.776 23.9936 19.4112 23.3943 19.9545H23.3963ZM34.1798 21.8662L35.6337 14.3699C35.801 13.5212 35.7374 12.9382 35.4429 12.6209C35.1591 12.3157 34.546 12.1624 33.6035 12.161H30.6857L28.8042 21.8662H25.1334L28.4266 4.92386H32.0874L31.2099 9.43203H34.473C36.5353 9.43203 37.945 9.78747 38.7201 10.4983C39.5053 11.2212 39.7342 12.3799 39.433 13.9824L37.8928 21.8682L34.1798 21.8662ZM54.5098 15.8017C54.3643 16.598 54.0895 17.3652 53.6965 18.0729C53.3004 18.7752 52.7955 19.4102 52.2005 19.9545C51.4983 20.6185 50.6594 21.1209 49.7426 21.4264C48.843 21.7095 47.6923 21.8662 46.3027 21.8662H43.144L42.2664 26.3643H38.5735L41.8688 9.43203H48.9594C51.094 9.43203 52.6523 9.98627 53.6343 11.1168C54.6082 12.2253 54.9094 13.7936 54.5098 15.8017ZM47.5678 12.0988H45.0456L43.6661 19.1894H45.9051C47.3991 19.1894 48.5076 18.9076 49.2305 18.344C49.9615 17.7897 50.4535 16.8479 50.7065 15.5407C50.9541 14.2849 50.8417 13.396 50.3691 12.8739C49.9113 12.3618 48.9695 12.0988 47.5678 12.0988Z" fill="#300D19"/>
</svg>
