<svg width="46" height="56" viewBox="0 0 46 56" fill="none" xmlns="http://www.w3.org/2000/svg">
<path d="M0.426218 37.9519C0.151575 37.5164 0.00398728 37.0129 7.9659e-05 36.4981C-0.00382796 35.9833 0.1361 35.4776 0.404102 35.038L21.0808 1.31225C21.3416 0.887673 21.7127 0.541832 22.1546 0.311587C22.5966 0.0813418 23.0927 -0.0246762 23.5901 0.00483385C24.0875 0.0343439 24.5676 0.198276 24.9791 0.479155C25.3907 0.760035 25.7184 1.14733 25.9272 1.59977L44.8151 42.5716C44.9797 42.9294 45.0656 43.3183 45.0671 43.7121C45.0685 44.106 44.9855 44.4955 44.8235 44.8545C44.6616 45.2135 44.4245 45.5336 44.1283 45.7931C43.8321 46.0527 43.4837 46.2457 43.1066 46.3591L13.7241 55.1783C13.1492 55.3508 12.5336 55.3307 11.9712 55.1211C11.4087 54.9115 10.9302 54.5238 10.6084 54.0172L0.426218 37.9519ZM23.4667 11.1737L16.1957 47.3848C16.1606 47.5592 16.1713 47.7396 16.2266 47.9086C16.2819 48.0777 16.38 48.2295 16.5113 48.3494C16.6427 48.4693 16.8028 48.5533 16.9761 48.593C17.1494 48.6328 17.3301 48.6271 17.5006 48.5764L37.8013 42.5163C37.9411 42.4748 38.0706 42.404 38.1811 42.3088C38.2915 42.2135 38.3806 42.0959 38.4422 41.9636C38.5039 41.8314 38.5368 41.6876 38.5388 41.5418C38.5408 41.3959 38.5118 41.2512 38.4537 41.1174L25.4268 10.9691C25.3409 10.7652 25.1918 10.5944 25.0014 10.4817C24.811 10.3691 24.5895 10.3207 24.3695 10.3436C24.1495 10.3665 23.9427 10.4596 23.7796 10.6091C23.6165 10.7586 23.5086 10.9565 23.4667 11.1737Z" fill="#300D19"/>
</svg>
