<svg width="71" height="69" viewBox="0 0 71 69" fill="none" xmlns="http://www.w3.org/2000/svg">
<path d="M58.4252 1.10049e-05H12.5748C10.9228 -0.00217232 9.28666 0.320536 7.76003 0.94965C6.2334 1.57876 4.8463 2.50192 3.67819 3.66623C2.51008 4.83055 1.58391 6.21314 0.952746 7.73481C0.321581 9.25647 -0.0021794 10.8873 1.10408e-05 12.5339V56.4661C-0.0021794 58.1127 0.321581 59.7435 0.952746 61.2652C1.58391 62.7869 2.51008 64.1695 3.67819 65.3338C4.8463 66.4981 6.2334 67.4212 7.76003 68.0503C9.28666 68.6795 10.9228 69.0022 12.5748 69H58.4252C60.0772 69.0022 61.7133 68.6795 63.24 68.0503C64.7666 67.4212 66.1537 66.4981 67.3218 65.3338C68.4899 64.1695 69.4161 62.7869 70.0473 61.2652C70.6784 59.7435 71.0022 58.1127 71 56.4661V12.5339C71.0022 10.8873 70.6784 9.25647 70.0473 7.73481C69.4161 6.21314 68.4899 4.83055 67.3218 3.66623C66.1537 2.50192 64.7666 1.57876 63.24 0.94965C61.7133 0.320536 60.0772 -0.00217232 58.4252 1.10049e-05ZM43.3987 48.6538H37.214C37.1098 48.6617 37.006 48.6336 36.9201 48.5742C36.8342 48.5148 36.7715 48.4277 36.7425 48.3276L34.3185 41.2839H23.2969L21.0781 48.2115C21.0539 48.337 20.9836 48.4489 20.8811 48.5256C20.7786 48.6023 20.6511 48.6381 20.5234 48.6262H14.9766C14.6548 48.6262 14.5661 48.4493 14.6548 48.0733L24.14 20.7608C24.2288 20.4623 24.3175 20.1416 24.434 19.7877C24.5553 19.1555 24.6147 18.513 24.6115 17.8692C24.6031 17.795 24.6229 17.7203 24.6671 17.6599C24.7112 17.5995 24.7765 17.5578 24.85 17.543H32.5102C32.7488 17.543 32.8652 17.6315 32.8985 17.7808L43.6927 48.1507C43.7815 48.4769 43.6927 48.6262 43.3987 48.6262V48.6538ZM53.605 48.3221C53.605 48.6483 53.4885 48.7921 53.2223 48.7921H47.4202C47.3583 48.7968 47.2961 48.7876 47.2383 48.7652C47.1804 48.7429 47.1282 48.7079 47.0857 48.6628C47.0431 48.6177 47.0112 48.5637 46.9923 48.5048C46.9734 48.4458 46.968 48.3834 46.9765 48.3221V25.593C46.9765 25.3 47.0985 25.1839 47.3648 25.1839H53.25C53.5162 25.1839 53.6327 25.3276 53.6327 25.593L53.605 48.3221ZM52.9837 21.6731C52.6349 22.0263 52.2145 22.3012 51.7506 22.4795C51.2867 22.6578 50.7899 22.7353 50.2935 22.707C49.8075 22.7177 49.3242 22.6317 48.8718 22.4542C48.4194 22.2767 48.007 22.0112 47.6587 21.6731C46.9779 20.9356 46.617 19.9599 46.6548 18.9584C46.634 18.4726 46.7167 17.9879 46.8974 17.5362C47.0781 17.0845 47.3527 16.6761 47.7031 16.3377C48.412 15.6665 49.3546 15.2958 50.3323 15.3039C50.8293 15.2782 51.3261 15.357 51.7905 15.5352C52.2549 15.7133 52.6766 15.9867 53.0281 16.3377C53.6819 17.0522 54.0319 17.9918 54.0044 18.9584C54.0242 19.4559 53.9441 19.9522 53.7689 20.4184C53.5936 20.8846 53.3267 21.3111 52.9837 21.6731ZM32.5435 35.2962H25.0275C25.4713 34.0577 25.915 32.67 26.331 31.1661C26.747 29.6623 27.2463 28.2192 27.69 26.8039C28.0941 25.5551 28.4292 24.2853 28.694 23H28.755C28.9602 23.7077 29.171 24.4762 29.404 25.3C29.637 26.1238 29.9088 27.0084 30.2027 27.9262C30.4967 28.844 30.7574 29.7231 31.0625 30.6353C31.3676 31.5476 31.6172 32.3769 31.8612 33.1731C32.1053 33.9692 32.366 34.6769 32.5435 35.2962Z" fill="white"/>
</svg>
