<svg width="42" height="42" viewBox="0 0 42 42" fill="none" xmlns="http://www.w3.org/2000/svg">
<path d="M33.0928 31.5439C32.3583 32.5025 31.526 33.3687 30.6104 34.127C30.611 33.7742 30.6143 33.425 30.6143 33.085C30.6143 32.9523 30.6093 32.8199 30.6055 32.6885C31.4443 32.3989 32.2878 32.0288 33.0928 31.5439ZM20.3896 4.69434C22.3591 4.69438 24.2416 5.02609 25.9814 5.63965C25.9784 5.64125 25.9757 5.64391 25.9727 5.64551C25.661 5.81093 25.3645 5.97879 25.0898 6.13965C23.652 5.87322 22.1815 5.73537 20.7227 5.73535C19.2623 5.73535 17.7898 5.87269 16.3506 6.13965C16.0763 5.97933 15.78 5.81139 15.4688 5.64648C15.3889 5.60419 15.3055 5.56309 15.2207 5.51953C16.8295 4.98173 18.5667 4.69434 20.3896 4.69434Z" fill="#300D19" stroke="#300D19" stroke-width="9.38897"/>
</svg>
